<svg id="svg" version="1.1" xmlns="http://www.w3.org/2000/svg" xmlns:xlink="http://www.w3.org/1999/xlink" width="400" height="120" viewBox="0, 0, 400,120"><g id="svgg"><path id="path0" d="M35.333 15.851 C 26.721 18.134,24.131 27.640,30.743 32.697 C 32.072 33.713,34.475 34.873,38.089 36.243 C 41.161 37.408,42.169 38.346,41.754 39.653 C 40.966 42.137,36.413 41.954,32.097 39.264 C 30.577 38.317,30.688 38.308,29.721 39.454 C 29.279 39.978,28.755 40.597,28.558 40.829 C 25.731 44.146,25.750 44.088,27.145 45.122 C 34.617 50.663,46.182 49.476,49.450 42.833 C 51.334 39.002,50.673 34.268,47.916 31.854 C 46.477 30.594,45.652 30.183,40.177 28.001 C 36.125 26.385,35.667 26.063,35.667 24.824 C 35.667 22.507,39.929 22.085,43.658 24.032 C 45.598 25.045,45.363 25.150,47.654 22.250 C 49.789 19.549,49.698 19.810,48.792 18.977 C 45.658 16.098,39.660 14.705,35.333 15.851 M83.349 16.154 C 83.155 16.276,83.147 16.471,83.302 17.276 C 83.406 17.812,83.608 18.962,83.753 19.833 C 83.897 20.704,84.121 21.979,84.251 22.667 C 84.381 23.354,84.609 24.667,84.756 25.583 C 84.904 26.500,85.091 27.550,85.170 27.917 C 85.250 28.283,85.396 29.108,85.494 29.750 C 85.592 30.392,85.743 31.254,85.830 31.667 C 85.917 32.079,86.105 33.129,86.248 34.000 C 86.604 36.156,86.987 38.350,87.252 39.750 C 87.374 40.392,87.599 41.667,87.752 42.583 C 87.904 43.500,88.130 44.775,88.252 45.417 C 88.375 46.058,88.522 46.864,88.578 47.206 C 88.734 48.148,88.842 48.167,94.041 48.167 C 99.932 48.167,99.311 48.583,100.004 44.167 C 100.098 43.571,100.209 42.971,100.251 42.833 C 100.334 42.562,100.744 40.353,101.008 38.750 C 101.098 38.200,101.243 37.412,101.328 37.000 C 101.893 34.278,102.462 30.958,102.597 29.595 L 102.712 28.440 103.003 29.012 C 103.163 29.326,103.344 29.996,103.405 30.500 C 103.467 31.004,103.619 31.979,103.744 32.667 C 103.869 33.354,104.090 34.592,104.236 35.417 C 104.381 36.242,104.695 37.892,104.933 39.083 C 105.357 41.210,105.690 42.929,105.997 44.583 C 106.416 46.844,106.642 47.864,106.746 47.969 C 106.931 48.154,116.556 48.200,117.034 48.019 C 117.458 47.858,117.648 47.276,117.939 45.250 C 118.080 44.272,118.520 41.570,118.672 40.750 C 118.756 40.292,118.904 39.392,118.999 38.750 C 119.094 38.108,119.243 37.246,119.329 36.833 C 119.415 36.421,119.607 35.258,119.754 34.250 C 119.902 33.242,120.125 31.892,120.250 31.250 C 120.375 30.608,120.522 29.708,120.578 29.250 C 120.633 28.792,120.748 28.079,120.832 27.667 C 120.916 27.254,121.107 26.129,121.258 25.167 C 121.408 24.204,121.605 23.042,121.695 22.583 C 121.882 21.634,122.281 19.134,122.518 17.430 C 122.727 15.935,122.908 16.005,118.833 16.005 C 114.815 16.005,114.703 16.024,114.594 16.727 C 114.464 17.577,114.012 21.028,113.937 21.750 C 113.793 23.138,113.351 26.626,113.188 27.667 C 113.094 28.262,112.899 29.912,112.755 31.333 C 112.611 32.754,112.420 34.442,112.330 35.083 C 112.240 35.725,112.119 36.925,112.061 37.750 C 111.890 40.172,111.419 39.689,111.003 36.667 C 110.921 36.071,110.697 34.721,110.505 33.667 C 110.313 32.612,110.083 31.337,109.995 30.833 C 109.825 29.866,109.538 28.515,109.092 26.583 C 108.944 25.942,108.704 24.854,108.559 24.167 C 108.106 22.026,107.876 20.971,107.508 19.333 C 107.312 18.462,107.088 17.422,107.010 17.021 C 106.932 16.620,106.767 16.227,106.643 16.148 C 106.357 15.967,100.157 15.959,99.873 16.139 C 99.668 16.269,99.329 17.507,98.746 20.250 C 98.591 20.983,98.362 22.033,98.239 22.583 C 98.116 23.133,97.894 24.146,97.747 24.833 C 97.599 25.521,97.378 26.533,97.254 27.083 C 96.719 29.465,96.506 30.511,96.251 32.000 C 96.102 32.871,95.910 33.921,95.825 34.333 C 95.740 34.746,95.626 35.421,95.572 35.833 C 95.518 36.246,95.361 37.146,95.223 37.833 C 94.770 40.083,94.689 40.145,94.493 38.379 C 94.425 37.758,94.286 36.537,94.185 35.667 C 94.084 34.796,93.886 33.033,93.744 31.750 C 93.602 30.467,93.412 28.929,93.322 28.333 C 93.231 27.738,93.088 26.575,93.003 25.750 C 92.853 24.286,92.781 23.706,92.242 19.583 C 92.098 18.483,91.944 17.272,91.899 16.892 C 91.836 16.358,91.735 16.179,91.451 16.103 C 90.861 15.945,83.607 15.990,83.349 16.154 M163.611 16.111 C 163.449 16.274,163.480 47.710,163.643 47.967 C 163.859 48.308,171.617 48.181,171.839 47.833 C 172.134 47.370,171.966 16.352,171.667 16.163 C 171.386 15.986,163.785 15.937,163.611 16.111 M222.958 16.179 C 222.684 16.340,222.667 17.273,222.667 32.032 C 222.667 46.771,222.684 47.727,222.958 47.935 C 223.383 48.257,230.710 48.266,230.977 47.944 C 231.102 47.793,231.176 45.923,231.206 42.152 L 231.250 36.583 236.367 36.500 C 240.247 36.437,241.536 36.364,241.700 36.200 C 242.074 35.827,242.104 29.891,241.735 29.483 C 241.466 29.186,241.147 29.167,236.516 29.164 C 233.803 29.163,231.488 29.101,231.371 29.027 C 231.209 28.924,231.169 28.216,231.204 26.071 L 231.250 23.250 237.333 23.167 L 243.417 23.083 243.417 19.583 L 243.417 16.083 233.333 16.046 C 226.690 16.021,223.151 16.067,222.958 16.179 M287.611 16.111 C 287.550 16.172,287.500 23.337,287.500 32.032 L 287.500 47.842 287.928 48.004 C 288.483 48.215,295.015 48.216,295.570 48.005 L 295.996 47.843 296.039 42.213 L 296.083 36.583 301.117 36.500 C 304.930 36.437,306.203 36.364,306.367 36.200 C 306.630 35.937,306.776 30.718,306.545 29.825 L 306.396 29.250 301.240 29.167 L 296.083 29.083 296.038 26.125 L 295.992 23.167 301.840 23.167 C 305.553 23.167,307.806 23.104,308.011 22.994 C 308.554 22.704,308.505 16.251,307.958 16.105 C 307.443 15.967,287.749 15.973,287.611 16.111 M348.224 16.258 C 348.128 16.508,348.337 17.016,350.004 20.583 C 350.433 21.500,351.104 22.962,351.496 23.833 C 351.888 24.704,352.612 26.268,353.104 27.309 C 353.597 28.349,354.000 29.229,354.000 29.264 C 354.000 29.299,354.309 29.985,354.686 30.788 C 355.064 31.592,355.560 32.662,355.789 33.167 C 356.018 33.671,356.497 34.707,356.853 35.468 L 357.500 36.853 357.500 42.347 L 357.500 47.842 357.936 48.007 C 358.191 48.104,359.930 48.154,362.144 48.128 L 365.917 48.083 366.000 42.500 C 366.078 37.243,366.104 36.873,366.439 36.167 C 366.634 35.754,367.178 34.607,367.647 33.617 C 368.116 32.626,368.500 31.790,368.500 31.759 C 368.500 31.727,368.865 30.924,369.312 29.975 C 369.758 29.026,370.294 27.875,370.503 27.417 C 371.721 24.741,374.731 18.206,375.281 17.043 C 375.775 16.000,375.776 16.000,371.328 16.000 C 366.980 16.000,366.768 16.039,366.524 16.877 C 366.438 17.174,366.015 18.392,365.585 19.583 C 365.155 20.775,364.588 22.387,364.324 23.167 C 364.061 23.946,363.573 25.333,363.239 26.250 C 362.906 27.167,362.564 28.154,362.479 28.445 C 362.394 28.736,362.190 29.141,362.024 29.345 L 361.723 29.717 361.471 28.984 C 361.332 28.580,360.685 26.675,360.033 24.750 C 359.380 22.825,358.575 20.500,358.244 19.583 C 357.913 18.667,357.582 17.725,357.509 17.490 C 357.435 17.256,357.251 16.824,357.100 16.532 L 356.825 16.000 352.574 16.000 C 348.890 16.000,348.310 16.034,348.224 16.258 M37.000 71.656 C 34.976 72.019,34.296 72.231,32.833 72.953 C 25.911 76.370,24.993 84.754,31.068 89.076 C 31.899 89.668,34.464 91.000,34.771 91.000 C 34.844 91.000,35.886 91.441,36.750 91.838 C 36.933 91.922,37.482 92.144,37.969 92.331 C 41.569 93.711,42.504 94.789,41.454 96.347 C 40.126 98.318,35.544 97.726,31.609 95.076 C 30.928 94.617,30.725 94.549,30.525 94.714 C 30.198 94.984,27.161 98.614,26.510 99.512 L 25.995 100.223 26.353 100.604 C 27.232 101.540,29.886 103.049,31.833 103.720 C 41.532 107.061,50.505 102.576,50.499 94.391 C 50.495 90.040,48.331 87.299,43.417 85.423 C 41.382 84.646,41.044 84.512,38.344 83.398 C 36.442 82.615,35.667 81.938,35.667 81.062 C 35.667 78.302,40.709 78.192,44.979 80.859 C 45.416 81.132,47.699 78.686,49.247 76.285 C 50.509 74.329,41.368 70.873,37.000 71.656 M93.577 72.375 C 93.533 72.490,93.517 79.671,93.540 88.333 L 93.583 104.083 103.750 104.083 L 113.917 104.083 113.917 100.667 L 113.917 97.250 108.000 97.167 L 102.083 97.083 102.000 84.833 C 101.954 78.096,101.856 72.490,101.782 72.375 C 101.680 72.218,100.665 72.167,97.652 72.167 C 94.609 72.167,93.637 72.216,93.577 72.375 M163.577 72.375 C 163.533 72.490,163.517 79.671,163.540 88.333 L 163.583 104.083 167.563 104.128 C 170.358 104.159,171.610 104.116,171.771 103.983 C 172.062 103.741,172.117 73.031,171.827 72.489 C 171.612 72.086,163.729 71.977,163.577 72.375 M220.243 72.375 C 220.200 72.490,220.183 79.671,220.207 88.333 L 220.250 104.083 226.917 104.083 C 234.253 104.083,234.574 104.047,237.440 102.902 C 243.126 100.629,246.001 95.659,245.999 88.107 C 245.998 80.238,243.335 75.822,237.083 73.321 C 236.285 73.001,234.633 72.615,233.167 72.404 C 231.001 72.094,220.360 72.069,220.243 72.375 M287.082 72.542 C 287.033 72.748,287.012 79.929,287.038 88.500 L 287.083 104.083 297.489 104.126 C 305.704 104.160,307.923 104.125,308.028 103.960 C 308.182 103.717,308.212 98.102,308.062 97.544 L 307.962 97.171 301.773 97.127 L 295.583 97.083 295.583 94.333 L 295.583 91.583 300.631 91.500 C 304.874 91.430,305.704 91.377,305.837 91.167 C 306.140 90.687,306.040 84.740,305.725 84.479 C 305.510 84.301,304.357 84.232,300.516 84.167 L 295.583 84.083 295.537 81.788 C 295.500 79.956,295.537 79.475,295.721 79.405 C 295.848 79.356,298.515 79.301,301.649 79.283 C 306.506 79.255,307.369 79.213,307.504 79.000 C 307.746 78.617,307.712 72.612,307.467 72.367 C 307.316 72.216,304.812 72.167,297.220 72.167 L 287.173 72.167 287.082 72.542 M350.006 72.489 C 349.741 72.983,349.768 103.702,350.033 103.967 C 350.317 104.251,357.849 104.251,358.133 103.967 C 358.280 103.820,358.333 102.426,358.333 98.734 C 358.333 92.979,358.161 93.500,360.065 93.500 C 361.630 93.500,361.544 93.410,363.341 96.917 C 365.999 102.102,366.861 103.744,367.037 103.958 C 367.258 104.229,376.088 104.262,376.254 103.993 C 376.313 103.898,375.592 102.454,374.652 100.785 C 373.712 99.116,372.740 97.375,372.492 96.917 C 372.244 96.458,371.807 95.686,371.520 95.201 C 371.234 94.716,371.000 94.288,371.000 94.251 C 371.000 94.214,370.738 93.748,370.417 93.217 C 369.680 91.995,369.687 91.814,370.486 91.260 C 373.697 89.034,375.204 85.343,374.694 80.952 C 374.109 75.922,371.298 73.355,365.333 72.404 C 362.817 72.003,350.229 72.073,350.006 72.489 M232.417 79.421 C 235.804 80.409,237.335 83.155,237.333 88.235 C 237.330 93.717,235.295 96.523,230.796 97.247 C 229.046 97.528,228.747 97.488,228.602 96.947 C 228.469 96.452,228.478 79.851,228.611 79.353 C 228.740 78.871,230.649 78.905,232.417 79.421 M364.020 79.169 C 367.022 80.003,367.420 84.645,364.616 86.113 C 363.256 86.825,358.828 87.114,358.506 86.511 C 358.316 86.156,358.259 79.297,358.444 79.111 C 358.621 78.935,363.353 78.984,364.020 79.169 " stroke="none" fill="#dc1c1c" fill-rule="evenodd"></path><path id="path1" d="M10.833 32.000 L 10.833 55.167 38.250 55.167 L 65.667 55.167 65.667 32.000 L 65.667 8.833 38.250 8.833 L 10.833 8.833 10.833 32.000 M75.333 32.000 L 75.333 55.167 103.000 55.167 L 130.667 55.167 130.667 32.000 L 130.667 8.833 103.000 8.833 L 75.333 8.833 75.333 32.000 M140.333 32.000 L 140.333 55.167 167.750 55.167 L 195.167 55.167 195.167 32.000 L 195.167 8.833 167.750 8.833 L 140.333 8.833 140.333 32.000 M204.833 32.000 L 204.833 55.167 232.500 55.167 L 260.167 55.167 260.167 32.000 L 260.167 8.833 232.500 8.833 L 204.833 8.833 204.833 32.000 M269.333 32.000 L 269.333 55.167 297.000 55.167 L 324.667 55.167 324.667 32.000 L 324.667 8.833 297.000 8.833 L 269.333 8.833 269.333 32.000 M334.333 32.000 L 334.333 55.167 362.000 55.167 L 389.667 55.167 389.667 32.000 L 389.667 8.833 362.000 8.833 L 334.333 8.833 334.333 32.000 M42.394 15.829 C 45.351 16.545,49.505 18.851,49.499 19.772 C 49.497 20.014,45.831 24.574,45.522 24.719 C 45.318 24.815,44.769 24.612,43.658 24.032 C 39.929 22.085,35.667 22.507,35.667 24.824 C 35.667 26.063,36.125 26.385,40.177 28.001 C 45.652 30.183,46.477 30.594,47.916 31.854 C 50.673 34.268,51.334 39.002,49.450 42.833 C 46.182 49.476,34.617 50.663,27.145 45.122 C 25.750 44.088,25.731 44.146,28.558 40.829 C 28.755 40.597,29.279 39.978,29.721 39.454 C 30.688 38.308,30.577 38.317,32.097 39.264 C 36.413 41.954,40.966 42.137,41.754 39.653 C 42.169 38.346,41.161 37.408,38.089 36.243 C 30.750 33.461,28.339 31.549,27.335 27.718 C 25.351 20.143,33.534 13.682,42.394 15.829 M91.451 16.103 C 91.735 16.179,91.836 16.358,91.899 16.892 C 91.944 17.272,92.098 18.483,92.242 19.583 C 92.781 23.706,92.853 24.286,93.003 25.750 C 93.088 26.575,93.231 27.738,93.322 28.333 C 93.412 28.929,93.602 30.467,93.744 31.750 C 93.886 33.033,94.084 34.796,94.185 35.667 C 94.286 36.537,94.425 37.758,94.493 38.379 C 94.689 40.145,94.770 40.083,95.223 37.833 C 95.361 37.146,95.518 36.246,95.572 35.833 C 95.626 35.421,95.740 34.746,95.825 34.333 C 95.910 33.921,96.102 32.871,96.251 32.000 C 96.506 30.511,96.719 29.465,97.254 27.083 C 97.378 26.533,97.599 25.521,97.747 24.833 C 97.894 24.146,98.116 23.133,98.239 22.583 C 98.362 22.033,98.591 20.983,98.746 20.250 C 99.329 17.507,99.668 16.269,99.873 16.139 C 100.157 15.959,106.357 15.967,106.643 16.148 C 106.767 16.227,106.932 16.620,107.010 17.021 C 107.088 17.422,107.312 18.462,107.508 19.333 C 107.876 20.971,108.106 22.026,108.559 24.167 C 108.704 24.854,108.944 25.942,109.092 26.583 C 109.538 28.515,109.825 29.866,109.995 30.833 C 110.083 31.337,110.313 32.612,110.505 33.667 C 110.697 34.721,110.921 36.071,111.003 36.667 C 111.419 39.689,111.890 40.172,112.061 37.750 C 112.119 36.925,112.240 35.725,112.330 35.083 C 112.420 34.442,112.611 32.754,112.755 31.333 C 112.899 29.912,113.094 28.262,113.188 27.667 C 113.351 26.626,113.793 23.138,113.937 21.750 C 114.012 21.028,114.464 17.577,114.594 16.727 C 114.703 16.024,114.815 16.005,118.833 16.005 C 122.908 16.005,122.727 15.935,122.518 17.430 C 122.281 19.134,121.882 21.634,121.695 22.583 C 121.605 23.042,121.408 24.204,121.258 25.167 C 121.107 26.129,120.916 27.254,120.832 27.667 C 120.748 28.079,120.633 28.792,120.578 29.250 C 120.522 29.708,120.375 30.608,120.250 31.250 C 120.125 31.892,119.902 33.242,119.754 34.250 C 119.607 35.258,119.415 36.421,119.329 36.833 C 119.243 37.246,119.094 38.108,118.999 38.750 C 118.904 39.392,118.756 40.292,118.672 40.750 C 118.520 41.570,118.080 44.272,117.939 45.250 C 117.648 47.276,117.458 47.858,117.034 48.019 C 116.556 48.200,106.931 48.154,106.746 47.969 C 106.642 47.864,106.416 46.844,105.997 44.583 C 105.690 42.929,105.357 41.210,104.933 39.083 C 104.695 37.892,104.381 36.242,104.236 35.417 C 104.090 34.592,103.869 33.354,103.744 32.667 C 103.619 31.979,103.467 31.004,103.405 30.500 C 103.344 29.996,103.163 29.326,103.003 29.012 L 102.712 28.440 102.597 29.595 C 102.462 30.958,101.893 34.278,101.328 37.000 C 101.243 37.412,101.098 38.200,101.008 38.750 C 100.744 40.353,100.334 42.562,100.251 42.833 C 100.209 42.971,100.098 43.571,100.004 44.167 C 99.311 48.583,99.932 48.167,94.041 48.167 C 88.842 48.167,88.734 48.148,88.578 47.206 C 88.522 46.864,88.375 46.058,88.252 45.417 C 88.130 44.775,87.904 43.500,87.752 42.583 C 87.599 41.667,87.374 40.392,87.252 39.750 C 86.987 38.350,86.604 36.156,86.248 34.000 C 86.105 33.129,85.917 32.079,85.830 31.667 C 85.743 31.254,85.592 30.392,85.494 29.750 C 85.396 29.108,85.250 28.283,85.170 27.917 C 85.091 27.550,84.904 26.500,84.756 25.583 C 84.609 24.667,84.381 23.354,84.251 22.667 C 84.121 21.979,83.897 20.704,83.753 19.833 C 83.608 18.962,83.406 17.812,83.302 17.276 C 83.147 16.471,83.155 16.276,83.349 16.154 C 83.607 15.990,90.861 15.945,91.451 16.103 M171.667 16.163 C 171.966 16.352,172.134 47.370,171.839 47.833 C 171.617 48.181,163.859 48.308,163.643 47.967 C 163.480 47.710,163.449 16.274,163.611 16.111 C 163.785 15.937,171.386 15.986,171.667 16.163 M243.417 19.583 L 243.417 23.083 237.333 23.167 L 231.250 23.250 231.204 26.071 C 231.169 28.216,231.209 28.924,231.371 29.027 C 231.488 29.101,233.803 29.163,236.516 29.164 C 241.147 29.167,241.466 29.186,241.735 29.483 C 242.104 29.891,242.074 35.827,241.700 36.200 C 241.536 36.364,240.247 36.437,236.367 36.500 L 231.250 36.583 231.206 42.152 C 231.176 45.923,231.102 47.793,230.977 47.944 C 230.710 48.266,223.383 48.257,222.958 47.935 C 222.684 47.727,222.667 46.771,222.667 32.032 C 222.667 17.273,222.684 16.340,222.958 16.179 C 223.151 16.067,226.690 16.021,233.333 16.046 L 243.417 16.083 243.417 19.583 M307.958 16.105 C 308.505 16.251,308.554 22.704,308.011 22.994 C 307.806 23.104,305.553 23.167,301.840 23.167 L 295.992 23.167 296.038 26.125 L 296.083 29.083 301.240 29.167 L 306.396 29.250 306.545 29.825 C 306.776 30.718,306.630 35.937,306.367 36.200 C 306.203 36.364,304.930 36.437,301.117 36.500 L 296.083 36.583 296.039 42.213 L 295.996 47.843 295.570 48.005 C 295.015 48.216,288.483 48.215,287.928 48.004 L 287.500 47.842 287.500 32.032 C 287.500 23.337,287.550 16.172,287.611 16.111 C 287.749 15.973,307.443 15.967,307.958 16.105 M357.100 16.532 C 357.251 16.824,357.435 17.256,357.509 17.490 C 357.582 17.725,357.913 18.667,358.244 19.583 C 358.575 20.500,359.380 22.825,360.033 24.750 C 360.685 26.675,361.332 28.580,361.471 28.984 L 361.723 29.717 362.024 29.345 C 362.190 29.141,362.394 28.736,362.479 28.445 C 362.564 28.154,362.906 27.167,363.239 26.250 C 363.573 25.333,364.061 23.946,364.324 23.167 C 364.588 22.387,365.155 20.775,365.585 19.583 C 366.015 18.392,366.438 17.174,366.524 16.877 C 366.768 16.039,366.980 16.000,371.328 16.000 C 375.776 16.000,375.775 16.000,375.281 17.043 C 374.731 18.206,371.721 24.741,370.503 27.417 C 370.294 27.875,369.758 29.026,369.312 29.975 C 368.865 30.924,368.500 31.727,368.500 31.759 C 368.500 31.790,368.116 32.626,367.647 33.617 C 367.178 34.607,366.634 35.754,366.439 36.167 C 366.104 36.873,366.078 37.243,366.000 42.500 L 365.917 48.083 362.144 48.128 C 359.930 48.154,358.191 48.104,357.936 48.007 L 357.500 47.842 357.500 42.347 L 357.500 36.853 356.853 35.468 C 356.497 34.707,356.018 33.671,355.789 33.167 C 355.560 32.662,355.064 31.592,354.686 30.788 C 354.309 29.985,354.000 29.299,354.000 29.264 C 354.000 29.229,353.597 28.349,353.104 27.309 C 352.612 26.268,351.888 24.704,351.496 23.833 C 351.104 22.962,350.433 21.500,350.004 20.583 C 348.337 17.016,348.128 16.508,348.224 16.258 C 348.310 16.034,348.890 16.000,352.574 16.000 L 356.825 16.000 357.100 16.532 M10.833 88.250 L 10.833 111.667 38.250 111.667 L 65.667 111.667 65.667 88.250 L 65.667 64.833 38.250 64.833 L 10.833 64.833 10.833 88.250 M75.333 88.250 L 75.333 111.667 103.000 111.667 L 130.667 111.667 130.667 88.250 L 130.667 64.833 103.000 64.833 L 75.333 64.833 75.333 88.250 M140.333 88.250 L 140.333 111.667 167.750 111.667 L 195.167 111.667 195.167 88.250 L 195.167 64.833 167.750 64.833 L 140.333 64.833 140.333 88.250 M204.833 88.250 L 204.833 111.667 232.500 111.667 L 260.167 111.667 260.167 88.250 L 260.167 64.833 232.500 64.833 L 204.833 64.833 204.833 88.250 M269.333 88.250 L 269.333 111.667 297.000 111.667 L 324.667 111.667 324.667 88.250 L 324.667 64.833 297.000 64.833 L 269.333 64.833 269.333 88.250 M334.333 88.250 L 334.333 111.668 361.958 111.625 L 389.583 111.583 389.626 88.208 L 389.668 64.833 362.001 64.833 L 334.333 64.833 334.333 88.250 M41.917 71.843 C 46.101 72.843,49.959 75.181,49.247 76.285 C 47.699 78.686,45.416 81.132,44.979 80.859 C 40.709 78.192,35.667 78.302,35.667 81.062 C 35.667 81.938,36.442 82.615,38.344 83.398 C 41.044 84.512,41.382 84.646,43.417 85.423 C 48.331 87.299,50.495 90.040,50.499 94.391 C 50.505 102.576,41.532 107.061,31.833 103.720 C 29.886 103.049,27.232 101.540,26.353 100.604 L 25.995 100.223 26.510 99.512 C 27.161 98.614,30.198 94.984,30.525 94.714 C 30.725 94.549,30.928 94.617,31.609 95.076 C 35.544 97.726,40.126 98.318,41.454 96.347 C 42.504 94.789,41.569 93.711,37.969 92.331 C 37.482 92.144,36.933 91.922,36.750 91.838 C 35.886 91.441,34.844 91.000,34.771 91.000 C 34.464 91.000,31.899 89.668,31.068 89.076 C 24.993 84.754,25.911 76.370,32.833 72.953 C 34.296 72.231,34.976 72.019,37.000 71.656 C 37.979 71.481,40.857 71.590,41.917 71.843 M101.782 72.375 C 101.856 72.490,101.954 78.096,102.000 84.833 L 102.083 97.083 108.000 97.167 L 113.917 97.250 113.917 100.667 L 113.917 104.083 103.750 104.083 L 93.583 104.083 93.540 88.333 C 93.517 79.671,93.533 72.490,93.577 72.375 C 93.637 72.216,94.609 72.167,97.652 72.167 C 100.665 72.167,101.680 72.218,101.782 72.375 M171.827 72.489 C 172.117 73.031,172.062 103.741,171.771 103.983 C 171.610 104.116,170.358 104.159,167.563 104.128 L 163.583 104.083 163.540 88.333 C 163.517 79.671,163.533 72.490,163.577 72.375 C 163.729 71.977,171.612 72.086,171.827 72.489 M233.167 72.404 C 242.793 73.786,247.674 81.397,245.747 92.023 C 244.758 97.479,242.013 101.074,237.440 102.902 C 234.574 104.047,234.253 104.083,226.917 104.083 L 220.250 104.083 220.207 88.333 C 220.183 79.671,220.200 72.490,220.243 72.375 C 220.360 72.069,231.001 72.094,233.167 72.404 M307.467 72.367 C 307.712 72.612,307.746 78.617,307.504 79.000 C 307.369 79.213,306.506 79.255,301.649 79.283 C 298.515 79.301,295.848 79.356,295.721 79.405 C 295.537 79.475,295.500 79.956,295.537 81.788 L 295.583 84.083 300.516 84.167 C 304.357 84.232,305.510 84.301,305.725 84.479 C 306.040 84.740,306.140 90.687,305.837 91.167 C 305.704 91.377,304.874 91.430,300.631 91.500 L 295.583 91.583 295.583 94.333 L 295.583 97.083 301.773 97.127 L 307.962 97.171 308.062 97.544 C 308.212 98.102,308.182 103.717,308.028 103.960 C 307.923 104.125,305.704 104.160,297.489 104.126 L 287.083 104.083 287.038 88.500 C 287.012 79.929,287.033 72.748,287.082 72.542 L 287.173 72.167 297.220 72.167 C 304.812 72.167,307.316 72.216,307.467 72.367 M365.333 72.404 C 371.298 73.355,374.109 75.922,374.694 80.952 C 375.204 85.343,373.697 89.034,370.486 91.260 C 369.687 91.814,369.680 91.995,370.417 93.217 C 370.738 93.748,371.000 94.214,371.000 94.251 C 371.000 94.288,371.234 94.716,371.520 95.201 C 371.807 95.686,372.244 96.458,372.492 96.917 C 372.740 97.375,373.712 99.116,374.652 100.785 C 375.592 102.454,376.313 103.898,376.254 103.993 C 376.088 104.262,367.258 104.229,367.037 103.958 C 366.861 103.744,365.999 102.102,363.341 96.917 C 361.544 93.410,361.630 93.500,360.065 93.500 C 358.161 93.500,358.333 92.979,358.333 98.734 C 358.333 102.426,358.280 103.820,358.133 103.967 C 357.989 104.111,356.856 104.167,354.083 104.167 C 351.311 104.167,350.177 104.111,350.033 103.967 C 349.768 103.702,349.741 72.983,350.006 72.489 C 350.229 72.073,362.817 72.003,365.333 72.404 M228.611 79.353 C 228.478 79.851,228.469 96.452,228.602 96.947 C 228.935 98.187,233.649 96.913,235.229 95.155 C 238.537 91.475,237.962 82.613,234.262 80.252 C 232.530 79.147,228.824 78.557,228.611 79.353 M358.444 79.111 C 358.259 79.297,358.316 86.156,358.506 86.511 C 358.828 87.114,363.256 86.825,364.616 86.113 C 367.420 84.645,367.022 80.003,364.020 79.169 C 363.353 78.984,358.621 78.935,358.444 79.111 " stroke="none" fill="#ffffff" fill-rule="evenodd"></path></g></svg>