<svg id="svg" version="1.1" xmlns="http://www.w3.org/2000/svg" xmlns:xlink="http://www.w3.org/1999/xlink" width="400" height="120" viewBox="0, 0, 400,120"><g id="svgg"><path id="path0" d="M35.204 15.903 C 26.110 18.397,24.090 28.591,31.735 33.406 C 32.452 33.858,36.347 35.588,38.333 36.337 C 41.404 37.495,42.390 38.669,41.507 40.117 C 40.305 42.087,35.986 41.687,32.061 39.241 C 30.511 38.276,30.808 38.127,28.333 41.116 C 25.922 44.027,25.901 44.080,26.819 44.866 C 31.356 48.749,39.428 49.792,44.833 47.194 C 51.579 43.951,52.617 34.852,46.689 30.936 C 45.589 30.209,44.563 29.743,40.750 28.236 C 36.431 26.529,35.667 26.037,35.667 24.969 C 35.667 22.474,39.954 22.020,43.817 24.106 C 45.541 25.038,45.370 25.114,47.459 22.484 C 49.744 19.608,49.677 19.779,48.826 18.993 C 45.655 16.066,39.610 14.695,35.204 15.903 M83.340 16.242 C 83.189 16.424,83.183 16.704,83.314 17.367 C 83.410 17.853,83.607 18.962,83.752 19.833 C 83.898 20.704,84.124 22.017,84.256 22.750 C 84.388 23.483,84.606 24.721,84.740 25.500 C 84.874 26.279,85.103 27.592,85.250 28.417 C 85.397 29.242,85.627 30.554,85.763 31.333 C 85.898 32.112,86.116 33.350,86.248 34.083 C 86.379 34.817,86.603 36.092,86.745 36.917 C 86.888 37.742,87.112 39.017,87.244 39.750 C 87.376 40.483,87.599 41.758,87.741 42.583 C 88.341 46.080,88.689 47.756,88.847 47.914 C 89.040 48.107,97.327 48.253,98.467 48.083 C 99.320 47.957,99.365 47.871,99.744 45.667 C 99.894 44.796,100.118 43.558,100.242 42.917 C 100.471 41.730,100.828 39.819,101.270 37.417 C 101.405 36.683,101.622 35.521,101.752 34.833 C 102.063 33.189,102.462 30.780,102.587 29.796 C 102.759 28.427,103.149 28.797,103.417 30.583 C 103.637 32.052,104.043 34.481,104.254 35.583 C 106.552 47.636,106.573 47.727,107.017 47.956 C 107.453 48.181,116.217 48.235,116.998 48.018 C 117.525 47.871,117.629 47.436,118.510 41.667 C 118.587 41.162,118.805 39.850,118.996 38.750 C 119.329 36.823,119.697 34.588,119.997 32.667 C 120.128 31.828,120.617 28.893,121.259 25.083 C 121.398 24.258,121.618 22.983,121.748 22.250 C 121.951 21.109,122.148 19.903,122.599 17.029 C 122.758 16.023,122.673 16.000,118.761 16.000 C 114.176 16.000,114.691 15.441,114.005 21.167 C 113.589 24.642,113.309 26.847,113.171 27.750 C 113.086 28.300,112.897 29.912,112.750 31.333 C 112.604 32.754,112.413 34.442,112.327 35.083 C 112.241 35.725,112.127 36.775,112.075 37.417 C 111.833 40.377,111.575 39.936,110.758 35.167 C 110.153 31.634,109.659 29.103,109.004 26.167 C 108.621 24.450,108.493 23.864,108.113 22.083 C 107.976 21.442,107.701 20.204,107.503 19.333 C 107.305 18.462,107.100 17.466,107.048 17.118 C 106.891 16.063,106.673 16.000,103.141 16.000 C 99.248 16.000,99.765 15.510,98.747 20.167 C 98.617 20.762,98.310 22.150,98.065 23.250 C 97.820 24.350,97.563 25.550,97.494 25.917 C 97.425 26.283,97.207 27.296,97.009 28.167 C 96.811 29.037,96.583 30.125,96.504 30.583 C 96.424 31.042,96.198 32.317,96.002 33.417 C 95.806 34.517,95.540 36.017,95.412 36.750 C 94.823 40.098,94.731 40.142,94.355 37.250 C 94.260 36.517,94.138 35.467,94.084 34.917 C 93.943 33.487,93.533 29.905,93.254 27.667 C 93.122 26.613,92.974 25.412,92.924 25.000 C 92.875 24.587,92.682 23.087,92.497 21.667 C 92.311 20.246,92.087 18.483,91.999 17.750 C 91.887 16.822,91.752 16.353,91.554 16.208 C 91.109 15.882,83.613 15.913,83.340 16.242 M163.708 16.110 C 163.289 16.280,163.418 47.778,163.839 48.003 C 164.509 48.362,171.483 48.145,171.766 47.756 C 172.134 47.253,172.037 16.397,171.667 16.163 C 171.413 16.003,164.095 15.954,163.708 16.110 M222.930 16.261 C 222.517 16.673,222.529 47.511,222.942 47.855 C 223.289 48.143,230.011 48.281,230.713 48.014 L 231.162 47.843 231.206 42.213 L 231.250 36.583 236.266 36.500 C 240.177 36.435,241.343 36.366,241.558 36.188 C 241.909 35.896,241.978 29.711,241.633 29.367 C 241.487 29.220,240.115 29.167,236.500 29.167 C 232.885 29.167,231.513 29.113,231.367 28.967 C 231.228 28.828,231.167 27.967,231.167 26.167 C 231.167 24.367,231.228 23.505,231.367 23.367 C 231.514 23.219,233.071 23.166,237.325 23.164 C 240.492 23.163,243.179 23.101,243.295 23.027 C 243.458 22.924,243.497 22.100,243.462 19.488 L 243.417 16.083 233.305 16.040 C 224.277 16.002,223.165 16.026,222.930 16.261 M287.708 16.110 C 287.544 16.177,287.500 19.515,287.500 32.018 L 287.500 47.842 287.928 48.004 C 288.583 48.254,294.991 48.209,295.500 47.951 L 295.917 47.740 296.000 42.162 L 296.083 36.583 301.117 36.500 C 304.934 36.437,306.203 36.364,306.367 36.200 C 306.616 35.951,306.688 29.632,306.445 29.389 C 306.368 29.313,304.006 29.212,301.195 29.167 L 296.083 29.083 296.083 26.167 L 296.083 23.250 302.000 23.167 C 305.254 23.121,308.010 23.023,308.125 22.948 C 308.519 22.694,308.413 16.388,308.011 16.173 C 307.684 15.997,288.137 15.938,287.708 16.110 M348.375 16.110 C 347.993 16.265,348.234 16.871,351.117 23.000 C 351.440 23.688,351.916 24.738,352.175 25.333 C 352.434 25.929,352.912 26.961,353.238 27.625 C 353.563 28.290,354.012 29.265,354.235 29.792 C 354.458 30.319,355.284 32.132,356.070 33.820 L 357.500 36.890 357.500 42.352 C 357.500 46.538,357.549 47.845,357.708 47.948 C 358.046 48.167,365.258 48.219,365.656 48.005 C 365.992 47.826,366.000 47.703,366.000 42.584 C 366.000 36.723,365.907 37.291,367.382 34.167 C 367.793 33.296,368.972 30.746,370.002 28.500 C 371.032 26.254,372.172 23.779,372.535 23.000 C 374.358 19.088,375.500 16.538,375.500 16.379 C 375.500 16.046,374.968 16.000,371.142 16.000 C 366.991 16.000,366.767 16.043,366.524 16.877 C 366.437 17.174,365.977 18.504,365.501 19.833 C 365.025 21.162,364.574 22.438,364.500 22.667 C 364.426 22.896,363.975 24.171,363.499 25.500 C 363.023 26.829,362.567 28.145,362.485 28.424 C 361.957 30.229,361.797 30.013,360.255 25.417 C 359.128 22.058,357.853 18.410,357.295 16.944 C 356.930 15.989,356.982 15.999,352.613 16.013 C 350.397 16.020,348.490 16.064,348.375 16.110 M37.250 71.603 C 30.190 72.669,25.809 78.025,27.312 83.750 C 28.326 87.610,30.404 89.335,37.341 92.077 C 41.692 93.797,42.563 94.701,41.454 96.347 C 40.066 98.406,35.833 97.782,31.230 94.840 C 30.682 94.489,30.496 94.646,28.253 97.343 C 25.861 100.219,25.847 100.263,27.083 101.210 C 34.541 106.921,46.621 105.561,49.615 98.673 C 52.131 92.882,49.794 87.885,43.417 85.417 C 36.318 82.670,35.668 82.300,35.668 81.000 C 35.668 78.307,40.770 78.230,44.979 80.859 C 45.417 81.132,45.529 81.030,47.522 78.539 C 49.756 75.746,49.684 75.944,48.783 75.109 C 46.208 72.719,40.780 71.069,37.250 71.603 M93.577 72.375 C 93.533 72.490,93.517 79.671,93.540 88.333 L 93.583 104.083 103.750 104.083 L 113.917 104.083 113.917 100.667 L 113.917 97.250 108.000 97.161 C 104.746 97.113,102.066 97.056,102.045 97.036 C 102.024 97.016,101.986 91.485,101.961 84.744 C 101.922 74.064,101.885 72.467,101.667 72.330 C 101.267 72.077,93.674 72.120,93.577 72.375 M163.577 72.375 C 163.533 72.490,163.517 79.671,163.540 88.333 L 163.583 104.083 167.618 104.128 C 171.492 104.171,171.659 104.159,171.828 103.842 C 172.139 103.261,171.982 72.529,171.667 72.330 C 171.267 72.077,163.674 72.120,163.577 72.375 M220.374 72.305 C 220.208 72.410,220.174 75.712,220.207 88.260 L 220.250 104.083 226.917 104.083 C 233.234 104.083,233.654 104.064,234.940 103.721 C 242.485 101.706,246.000 96.738,246.000 88.087 C 246.000 78.777,241.821 73.672,233.167 72.408 C 231.421 72.153,220.749 72.067,220.374 72.305 M287.082 72.542 C 287.033 72.748,287.012 79.929,287.038 88.500 L 287.083 104.083 297.417 104.127 C 306.983 104.167,307.765 104.149,307.958 103.887 C 308.214 103.539,308.252 98.247,308.004 97.594 L 307.842 97.167 301.879 97.164 C 298.600 97.163,295.821 97.101,295.704 97.027 C 295.543 96.924,295.502 96.249,295.537 94.237 L 295.583 91.583 300.631 91.500 C 304.874 91.430,305.704 91.377,305.837 91.167 C 306.140 90.688,306.040 84.741,305.725 84.479 C 305.510 84.301,304.357 84.232,300.516 84.167 L 295.583 84.083 295.583 81.750 L 295.583 79.417 301.465 79.333 C 306.448 79.263,307.370 79.212,307.504 79.000 C 307.746 78.617,307.712 72.612,307.467 72.367 C 307.316 72.216,304.812 72.167,297.220 72.167 L 287.173 72.167 287.082 72.542 M350.006 72.489 C 349.891 72.705,349.833 77.901,349.833 88.167 C 349.833 98.433,349.891 103.629,350.006 103.844 C 350.218 104.240,357.747 104.353,358.133 103.967 C 358.280 103.820,358.333 102.448,358.333 98.833 C 358.333 93.134,358.219 93.500,360.001 93.500 C 361.671 93.500,361.474 93.267,364.018 98.250 C 365.235 100.633,366.427 102.921,366.668 103.333 L 367.106 104.083 371.584 104.128 C 374.232 104.154,376.125 104.108,376.218 104.015 C 376.317 103.916,375.704 102.656,374.575 100.637 C 373.585 98.866,372.460 96.854,372.076 96.167 C 371.692 95.479,371.211 94.621,371.007 94.260 C 369.670 91.890,369.660 91.819,370.586 91.187 C 377.452 86.499,375.777 75.045,367.917 72.926 C 364.771 72.078,350.413 71.728,350.006 72.489 M231.717 79.268 C 235.629 80.143,237.332 82.817,237.332 88.083 C 237.332 92.435,236.023 95.264,233.445 96.482 C 232.050 97.141,229.331 97.641,228.830 97.331 C 228.518 97.139,228.364 79.900,228.668 79.330 C 228.894 78.909,230.009 78.886,231.717 79.268 M364.383 79.335 C 366.992 80.311,367.304 84.195,364.909 85.873 C 363.636 86.765,358.895 87.238,358.506 86.511 C 358.322 86.166,358.258 79.723,358.434 79.264 C 358.601 78.829,363.178 78.884,364.383 79.335 " stroke="none" fill="#dc1c1cffffff" fill-rule="evenodd"></path><path id="path1" d="M10.577 8.708 C 10.533 8.823,10.517 19.379,10.540 32.167 L 10.583 55.417 38.250 55.417 L 65.917 55.417 65.917 32.000 L 65.917 8.583 38.287 8.541 C 16.270 8.508,10.640 8.541,10.577 8.708 M75.200 8.700 C 74.909 8.991,74.909 55.009,75.200 55.300 C 75.491 55.591,130.509 55.591,130.800 55.300 C 131.091 55.009,131.091 8.991,130.800 8.700 C 130.509 8.409,75.491 8.409,75.200 8.700 M140.077 8.708 C 140.033 8.823,140.017 19.379,140.040 32.167 L 140.083 55.417 167.750 55.417 L 195.417 55.417 195.417 32.000 L 195.417 8.583 167.787 8.541 C 145.770 8.508,140.140 8.541,140.077 8.708 M204.700 8.700 C 204.409 8.991,204.409 55.009,204.700 55.300 C 205.045 55.645,259.892 55.584,260.238 55.238 C 260.639 54.838,260.639 9.162,260.238 8.762 C 259.892 8.416,205.045 8.355,204.700 8.700 M269.200 8.700 C 268.909 8.991,268.909 55.009,269.200 55.300 C 269.491 55.591,324.509 55.591,324.800 55.300 C 325.012 55.088,325.109 9.312,324.899 8.764 C 324.765 8.416,269.547 8.353,269.200 8.700 M334.077 8.708 C 334.033 8.823,334.017 19.379,334.040 32.167 L 334.083 55.417 361.750 55.461 L 389.417 55.505 389.708 55.151 C 390.135 54.632,390.164 9.188,389.738 8.762 C 389.384 8.408,334.211 8.355,334.077 8.708 M42.364 15.830 C 45.907 16.672,49.848 19.039,49.327 20.012 C 48.976 20.667,45.803 24.578,45.504 24.723 C 45.299 24.822,44.814 24.645,43.817 24.106 C 39.954 22.020,35.667 22.474,35.667 24.969 C 35.667 26.037,36.431 26.529,40.750 28.236 C 44.563 29.743,45.589 30.209,46.689 30.936 C 52.617 34.852,51.579 43.951,44.833 47.194 C 39.428 49.792,31.356 48.749,26.819 44.866 C 25.901 44.080,25.922 44.027,28.333 41.116 C 30.808 38.127,30.511 38.276,32.061 39.241 C 35.986 41.687,40.305 42.087,41.507 40.117 C 42.390 38.669,41.404 37.495,38.333 36.337 C 30.919 33.541,28.314 31.508,27.343 27.760 C 25.364 20.127,33.442 13.711,42.364 15.830 M91.554 16.208 C 91.752 16.353,91.887 16.822,91.999 17.750 C 92.087 18.483,92.311 20.246,92.497 21.667 C 92.682 23.087,92.875 24.587,92.924 25.000 C 92.974 25.412,93.122 26.613,93.254 27.667 C 93.533 29.905,93.943 33.487,94.084 34.917 C 94.138 35.467,94.260 36.517,94.355 37.250 C 94.731 40.142,94.823 40.098,95.412 36.750 C 95.540 36.017,95.806 34.517,96.002 33.417 C 96.198 32.317,96.424 31.042,96.504 30.583 C 96.583 30.125,96.811 29.037,97.009 28.167 C 97.207 27.296,97.425 26.283,97.494 25.917 C 97.563 25.550,97.820 24.350,98.065 23.250 C 98.310 22.150,98.617 20.762,98.747 20.167 C 99.765 15.510,99.248 16.000,103.141 16.000 C 106.673 16.000,106.891 16.063,107.048 17.118 C 107.100 17.466,107.305 18.462,107.503 19.333 C 107.701 20.204,107.976 21.442,108.113 22.083 C 108.493 23.864,108.621 24.450,109.004 26.167 C 109.659 29.103,110.153 31.634,110.758 35.167 C 111.575 39.936,111.833 40.377,112.075 37.417 C 112.127 36.775,112.241 35.725,112.327 35.083 C 112.413 34.442,112.604 32.754,112.750 31.333 C 112.897 29.912,113.086 28.300,113.171 27.750 C 113.309 26.847,113.589 24.642,114.005 21.167 C 114.691 15.441,114.176 16.000,118.761 16.000 C 122.673 16.000,122.758 16.023,122.599 17.029 C 122.148 19.903,121.951 21.109,121.748 22.250 C 121.618 22.983,121.398 24.258,121.259 25.083 C 120.617 28.893,120.128 31.828,119.997 32.667 C 119.697 34.588,119.329 36.823,118.996 38.750 C 118.805 39.850,118.587 41.162,118.510 41.667 C 117.629 47.436,117.525 47.871,116.998 48.018 C 116.217 48.235,107.453 48.181,107.017 47.956 C 106.573 47.727,106.552 47.636,104.254 35.583 C 104.043 34.481,103.637 32.052,103.417 30.583 C 103.149 28.797,102.759 28.427,102.587 29.796 C 102.462 30.780,102.063 33.189,101.752 34.833 C 101.622 35.521,101.405 36.683,101.270 37.417 C 100.828 39.819,100.471 41.730,100.242 42.917 C 100.118 43.558,99.894 44.796,99.744 45.667 C 99.365 47.871,99.320 47.957,98.467 48.083 C 97.327 48.253,89.040 48.107,88.847 47.914 C 88.689 47.756,88.341 46.080,87.741 42.583 C 87.599 41.758,87.376 40.483,87.244 39.750 C 87.112 39.017,86.888 37.742,86.745 36.917 C 86.603 36.092,86.379 34.817,86.248 34.083 C 86.116 33.350,85.898 32.112,85.763 31.333 C 85.627 30.554,85.397 29.242,85.250 28.417 C 85.103 27.592,84.874 26.279,84.740 25.500 C 84.606 24.721,84.388 23.483,84.256 22.750 C 84.124 22.017,83.898 20.704,83.752 19.833 C 83.607 18.962,83.410 17.853,83.314 17.367 C 83.036 15.964,82.927 16.000,87.405 16.000 C 90.234 16.000,91.346 16.056,91.554 16.208 M171.667 16.163 C 172.037 16.397,172.134 47.253,171.766 47.756 C 171.483 48.145,164.509 48.362,163.839 48.003 C 163.418 47.778,163.289 16.280,163.708 16.110 C 164.095 15.954,171.413 16.003,171.667 16.163 M243.462 19.488 C 243.497 22.100,243.458 22.924,243.295 23.027 C 243.179 23.101,240.492 23.163,237.325 23.164 C 233.071 23.166,231.514 23.219,231.367 23.367 C 231.228 23.505,231.167 24.367,231.167 26.167 C 231.167 27.967,231.228 28.828,231.367 28.967 C 231.513 29.113,232.885 29.167,236.500 29.167 C 240.115 29.167,241.487 29.220,241.633 29.367 C 241.978 29.711,241.909 35.896,241.558 36.188 C 241.343 36.366,240.177 36.435,236.266 36.500 L 231.250 36.583 231.206 42.213 L 231.162 47.843 230.713 48.014 C 230.011 48.281,223.289 48.143,222.942 47.855 C 222.529 47.511,222.517 16.673,222.930 16.261 C 223.165 16.026,224.277 16.002,233.305 16.040 L 243.417 16.083 243.462 19.488 M308.011 16.173 C 308.413 16.388,308.519 22.694,308.125 22.948 C 308.010 23.023,305.254 23.121,302.000 23.167 L 296.083 23.250 296.083 26.167 L 296.083 29.083 301.195 29.167 C 304.006 29.212,306.368 29.313,306.445 29.389 C 306.688 29.632,306.616 35.951,306.367 36.200 C 306.203 36.364,304.934 36.437,301.117 36.500 L 296.083 36.583 296.000 42.162 L 295.917 47.740 295.500 47.951 C 294.991 48.209,288.583 48.254,287.928 48.004 L 287.500 47.842 287.500 32.018 C 287.500 19.515,287.544 16.177,287.708 16.110 C 288.137 15.938,307.684 15.997,308.011 16.173 M356.879 16.236 C 357.008 16.365,357.196 16.684,357.295 16.944 C 357.853 18.410,359.128 22.058,360.255 25.417 C 361.797 30.013,361.957 30.229,362.485 28.424 C 362.567 28.145,363.023 26.829,363.499 25.500 C 363.975 24.171,364.426 22.896,364.500 22.667 C 364.574 22.438,365.025 21.162,365.501 19.833 C 365.977 18.504,366.437 17.174,366.524 16.877 C 366.767 16.043,366.991 16.000,371.142 16.000 C 374.968 16.000,375.500 16.046,375.500 16.379 C 375.500 16.538,374.358 19.088,372.535 23.000 C 372.172 23.779,371.032 26.254,370.002 28.500 C 368.972 30.746,367.793 33.296,367.382 34.167 C 365.907 37.291,366.000 36.723,366.000 42.584 C 366.000 47.703,365.992 47.826,365.656 48.005 C 365.258 48.219,358.046 48.167,357.708 47.948 C 357.549 47.845,357.500 46.538,357.500 42.352 L 357.500 36.890 356.070 33.820 C 355.284 32.132,354.458 30.319,354.235 29.792 C 354.012 29.265,353.563 28.290,353.238 27.625 C 352.912 26.961,352.434 25.929,352.175 25.333 C 351.916 24.738,351.440 23.688,351.117 23.000 C 348.234 16.871,347.993 16.265,348.375 16.110 C 348.924 15.889,356.646 16.003,356.879 16.236 M10.700 64.700 C 10.357 65.043,10.416 111.139,10.759 111.630 L 11.019 112.000 38.139 112.000 C 62.415 112.000,65.298 111.973,65.630 111.741 L 66.000 111.481 66.000 88.191 C 66.000 70.298,65.954 64.854,65.800 64.700 C 65.509 64.409,10.991 64.409,10.700 64.700 M75.173 64.822 C 75.056 65.040,75.000 72.615,75.000 88.163 L 75.000 111.182 75.411 111.592 L 75.821 112.003 103.092 111.960 L 130.363 111.917 130.681 111.523 C 131.132 110.967,131.188 65.211,130.738 64.762 C 130.284 64.308,75.416 64.368,75.173 64.822 M140.200 64.700 C 139.857 65.043,139.916 111.139,140.259 111.630 L 140.519 112.000 167.676 112.000 C 194.611 112.000,194.836 111.997,195.167 111.667 C 195.576 111.258,195.707 65.107,195.300 64.700 C 195.009 64.409,140.491 64.409,140.200 64.700 M204.673 64.822 C 204.556 65.040,204.500 72.615,204.500 88.163 L 204.500 111.182 204.911 111.592 L 205.321 112.003 232.592 111.960 L 259.863 111.917 260.181 111.523 C 260.694 110.890,260.679 65.346,260.167 64.833 C 259.650 64.317,204.949 64.306,204.673 64.822 M269.173 64.822 C 269.056 65.040,269.000 72.615,269.000 88.163 L 269.000 111.182 269.409 111.591 L 269.818 112.000 297.076 112.000 C 324.111 112.000,324.336 111.997,324.667 111.667 C 325.076 111.258,325.207 65.107,324.800 64.700 C 324.402 64.302,269.386 64.423,269.173 64.822 M334.200 64.700 C 333.857 65.043,333.916 111.139,334.259 111.630 L 334.519 112.000 361.772 112.000 L 389.026 112.000 389.513 111.513 L 390.000 111.026 390.000 88.252 C 390.000 65.270,389.994 65.002,389.433 64.628 C 389.096 64.402,334.426 64.474,334.200 64.700 M42.209 71.911 C 44.840 72.526,47.278 73.713,48.783 75.109 C 49.684 75.944,49.756 75.746,47.522 78.539 C 45.529 81.030,45.417 81.132,44.979 80.859 C 40.770 78.230,35.668 78.307,35.668 81.000 C 35.668 82.300,36.318 82.670,43.417 85.417 C 49.794 87.885,52.131 92.882,49.615 98.673 C 46.621 105.561,34.541 106.921,27.083 101.210 C 25.847 100.263,25.861 100.219,28.253 97.343 C 30.496 94.646,30.682 94.489,31.230 94.840 C 35.833 97.782,40.066 98.406,41.454 96.347 C 42.563 94.701,41.692 93.797,37.341 92.077 C 30.404 89.335,28.326 87.610,27.312 83.750 C 25.809 78.025,30.190 72.669,37.250 71.603 C 38.168 71.464,41.070 71.644,42.209 71.911 M101.667 72.330 C 101.885 72.467,101.922 74.064,101.961 84.744 C 101.986 91.485,102.024 97.016,102.045 97.036 C 102.066 97.056,104.746 97.113,108.000 97.161 L 113.917 97.250 113.917 100.667 L 113.917 104.083 103.750 104.083 L 93.583 104.083 93.540 88.333 C 93.517 79.671,93.533 72.490,93.577 72.375 C 93.674 72.120,101.267 72.077,101.667 72.330 M171.667 72.330 C 171.982 72.529,172.139 103.261,171.828 103.842 C 171.659 104.159,171.492 104.171,167.618 104.128 L 163.583 104.083 163.540 88.333 C 163.517 79.671,163.533 72.490,163.577 72.375 C 163.674 72.120,171.267 72.077,171.667 72.330 M233.167 72.408 C 241.821 73.672,246.000 78.777,246.000 88.087 C 246.000 96.738,242.485 101.706,234.940 103.721 C 233.654 104.064,233.234 104.083,226.917 104.083 L 220.250 104.083 220.207 88.260 C 220.174 75.712,220.208 72.410,220.374 72.305 C 220.749 72.067,231.421 72.153,233.167 72.408 M307.467 72.367 C 307.712 72.612,307.746 78.617,307.504 79.000 C 307.370 79.212,306.448 79.263,301.465 79.333 L 295.583 79.417 295.583 81.750 L 295.583 84.083 300.516 84.167 C 304.357 84.232,305.510 84.301,305.725 84.479 C 306.040 84.741,306.140 90.688,305.837 91.167 C 305.704 91.377,304.874 91.430,300.631 91.500 L 295.583 91.583 295.537 94.237 C 295.502 96.249,295.543 96.924,295.704 97.027 C 295.821 97.101,298.600 97.163,301.879 97.164 L 307.842 97.167 308.004 97.594 C 308.252 98.247,308.214 103.539,307.958 103.887 C 307.765 104.149,306.983 104.167,297.417 104.127 L 287.083 104.083 287.038 88.500 C 287.012 79.929,287.033 72.748,287.082 72.542 L 287.173 72.167 297.220 72.167 C 304.812 72.167,307.316 72.216,307.467 72.367 M365.348 72.412 C 370.962 73.288,373.878 75.745,374.615 80.216 C 375.368 84.793,373.835 88.969,370.586 91.187 C 369.660 91.819,369.670 91.890,371.007 94.260 C 371.211 94.621,371.692 95.479,372.076 96.167 C 372.460 96.854,373.585 98.866,374.575 100.637 C 375.704 102.656,376.317 103.916,376.218 104.015 C 376.125 104.108,374.232 104.154,371.584 104.128 L 367.106 104.083 366.668 103.333 C 366.427 102.921,365.235 100.633,364.018 98.250 C 361.474 93.267,361.671 93.500,360.001 93.500 C 358.219 93.500,358.333 93.134,358.333 98.833 C 358.333 102.448,358.280 103.820,358.133 103.967 C 357.747 104.353,350.218 104.240,350.006 103.844 C 349.891 103.629,349.833 98.433,349.833 88.167 C 349.833 77.901,349.891 72.705,350.006 72.489 C 350.237 72.057,362.674 71.994,365.348 72.412 M228.668 79.330 C 228.364 79.900,228.518 97.139,228.830 97.331 C 229.331 97.641,232.050 97.141,233.445 96.482 C 237.614 94.512,238.859 85.591,235.548 81.412 C 234.154 79.652,229.284 78.179,228.668 79.330 M358.434 79.264 C 358.258 79.723,358.322 86.166,358.506 86.511 C 358.895 87.238,363.636 86.765,364.909 85.873 C 367.304 84.195,366.992 80.311,364.383 79.335 C 363.178 78.884,358.601 78.829,358.434 79.264 " stroke="none" fill="#dc1c1c" fill-rule="evenodd"></path></g></svg>