<?xml version="1.0" encoding="utf-8"?>
<!-- Generator: Adobe Illustrator 19.2.1, SVG Export Plug-In . SVG Version: 6.00 Build 0)  -->
<svg version="1.1" id="Lag_1" xmlns="http://www.w3.org/2000/svg" xmlns:xlink="http://www.w3.org/1999/xlink" x="0px" y="0px"
	 viewBox="0 0 142.7 26" style="enable-background:new 0 0 142.7 26;" xml:space="preserve">
<style type="text/css">
	.st0{fill:#51544B;}
	.st1{fill:#1584C6;}
</style>
<g>
	<g>
		<path class="st0" d="M37.7,7.2V4.6c0-0.2,0.1-0.4,0.4-0.4l1.9-0.4H40c0.1,0,0.3,0.1,0.3,0.3v12.6c0,0.6-0.1,1.2-1.2,1.5
			c-0.9,0.2-1.9,0.4-3.2,0.4c-3.8,0-5-1.4-5-5.3c0-3.5,0.9-5.4,4.3-5.4c1.2,0,2,0.2,2.5,0.3V7.2z M37.7,10c0,0-0.9-0.2-1.9-0.2
			c-1.7,0-2.3,0.4-2.3,3.5c0,3.2,0.7,3.6,2.4,3.6c0.9,0,1.8-0.2,1.8-0.2V10z"/>
		<path class="st0" d="M45.8,22.2c-0.1,0-0.3-0.1-0.3-0.4l1-3.5h-1.2c-0.2,0-0.3-0.1-0.4-0.3L42,8.7c0-0.1,0-0.1,0-0.1
			c0-0.1,0.1-0.3,0.3-0.3h1.9c0.2,0,0.4,0.1,0.4,0.3l2.1,8.2h0.5l1.9-8.2c0.1-0.2,0.2-0.4,0.4-0.4h1.9c0.2,0,0.4,0.1,0.4,0.3
			c0,0.1,0,0.1,0,0.1l-3.9,13.2c-0.1,0.2-0.2,0.4-0.4,0.4H45.8z"/>
		<path class="st0" d="M62.3,18.4h-2c-0.1,0-0.3-0.1-0.3-0.3v-6.9c0-1.2-0.4-1.5-1.4-1.5c-1.2,0-2.5,0.4-2.5,0.4v8
			c0,0.1-0.1,0.3-0.3,0.3h-1.9c-0.2,0-0.4-0.1-0.4-0.3V9.8c0-0.7,0.4-1,1.4-1.3c1-0.3,2.6-0.5,3.8-0.5c2.5,0,3.8,0.6,3.8,3v7.2
			C62.6,18.3,62.5,18.4,62.3,18.4"/>
		<path class="st0" d="M91.5,18.4h-2c-0.1,0-0.3-0.1-0.3-0.3v-6.9c0-1.2-0.5-1.5-1.5-1.5c-1.2,0-2.5,0.4-2.5,0.4v8
			c0,0.1-0.1,0.3-0.3,0.3H83c-0.2,0-0.3-0.1-0.3-0.3v-6.9c0-1.2-0.4-1.5-1.4-1.5c-1.2,0-2.5,0.4-2.5,0.4v8c0,0.1-0.1,0.3-0.3,0.3
			h-2.1c-0.2,0-0.4-0.1-0.4-0.3V9.8c0-0.7,0.4-1,1.4-1.3c1-0.3,2.7-0.5,3.9-0.5s2.1,0.3,2.6,0.6C84.6,8.4,86.4,8,88,8
			c2.4,0,3.8,0.6,3.8,3v7.2C91.8,18.3,91.6,18.4,91.5,18.4"/>
		<path class="st0" d="M96.8,18.4h-1.9c-0.1,0-0.3-0.1-0.3-0.3V8.7c0-0.1,0.1-0.3,0.3-0.3h1.9c0.1,0,0.3,0.1,0.3,0.3v9.4
			C97,18.3,96.9,18.4,96.8,18.4 M96.5,6.9h-1.7c-0.3,0-0.4-0.1-0.4-0.4V4.3c0-0.3,0.1-0.4,0.4-0.4h1.7c0.3,0,0.4,0.1,0.4,0.4v2.2
			C97,6.8,96.8,6.9,96.5,6.9"/>
		<path class="st1" d="M120.3,18.1c-0.1,0.1-0.2,0.3-0.4,0.3h-2.5c-0.1,0-0.3-0.1-0.4-0.3l-1.9-7.9l-1.9,7.9
			c-0.1,0.1-0.2,0.3-0.4,0.3h-2.5c-0.1,0-0.3-0.1-0.4-0.3l-2-9.8V8.2c0-0.1,0.1-0.2,0.2-0.2h1.3c0.1,0,0.3,0.1,0.3,0.2l1.5,8.9h0.5
			l1.9-7.9c0.1-0.1,0.2-0.3,0.4-0.3h1.9c0.1,0,0.3,0.1,0.4,0.3l1.9,7.9h0.5l1.5-8.9c0.1-0.1,0.1-0.2,0.3-0.2h1.3
			c0.1,0,0.1,0.1,0.1,0.2v0.1L120.3,18.1z"/>
		<path class="st1" d="M124.5,8.3c0-0.1,0.1-0.3,0.3-0.3h6.6c0.1,0,0.3,0.1,0.3,0.3v0.9c0,0.1-0.1,0.3-0.3,0.3h-5.3v2.9h5
			c0.1,0,0.3,0.1,0.3,0.3v0.9c0,0.1-0.1,0.3-0.3,0.3h-5v3.3h5.2c0.1,0,0.3,0.1,0.3,0.3v0.9c0,0.1-0.1,0.3-0.3,0.3h-6.6
			c-0.1,0-0.3-0.1-0.3-0.3L124.5,8.3L124.5,8.3z"/>
		<path class="st0" d="M71.1,13.5v3.2c-0.4,0.1-1,0.3-1.8,0.3c-0.9,0-2.2-0.1-2.2-1.7c0-1.2,0.7-1.4,1.5-1.5c0.1,0,0.4-0.1,0.5-0.1
			c0.4-0.1,0.6-0.1,0.6-0.4v-0.8c0-0.2-0.1-0.5-0.5-0.4l-1.7,0.3c-1.5,0.2-3.1,0.5-3.1,3c0,3.1,2.6,3.3,4.7,3.3c1.1,0,2-0.1,2.7-0.3
			c1.3-0.3,1.8-0.6,1.8-2v-5.3c0-1.1-0.2-1.9-1.2-2.5c-0.6-0.4-1.5-0.6-3-0.6c-1.9,0-3.8,0.5-4.3,0.6C65.2,8.7,65,8.8,65,9V9
			l0.3,1.2c0,0.1,0.1,0.1,0.2,0.1s0.1,0,0.1,0c0.6-0.1,2-0.6,3.3-0.6c0.7,0,1.2,0.1,1.4,0.2c0.5,0.2,0.6,0.6,0.6,1.2v2.3H71.1z"/>
		<path class="st1" d="M140.5,13.2v-0.4c1.1-0.2,1.9-0.7,1.9-2.2c0-1.8-0.9-2.6-3.2-2.6h-4.8c-0.1,0-0.3,0.1-0.3,0.3v9.8
			c0,0.1,0.1,0.3,0.3,0.3h4.5c2.3,0,3.7-0.9,3.7-2.8C142.8,14,142,13.4,140.5,13.2 M139.1,17H136c-0.1,0-0.1-0.1-0.1-0.1v-2.4l0,0
			l0,0v-3l0,0l0,0V9.5c0-0.1,0.1-0.1,0.1-0.1h3.2c1.2,0,1.6,0.5,1.6,1.5c0,1.1-0.6,1.4-1.7,1.5l-1.5,0.1c-0.1,0-0.1,0.1-0.1,0.2v0.9
			c0,0.1,0.1,0.1,0.1,0.2l1.5,0.1c1.6,0.1,2,0.5,2,1.7C141,16.4,140.6,17,139.1,17"/>
		<path class="st0" d="M107.7,16.5c-0.1-0.1-0.1-0.2-0.3-0.2h-0.2c-0.4,0.1-1.5,0.4-2.5,0.4c-2.1,0-2.7-0.9-2.7-3.5s0.6-3.5,2.7-3.5
			c0.3,0,0.8,0.1,1.3,0.1c0.1,0,0.3-0.1,0.3-0.3l-0.2-1.2c-0.1-0.2-0.2-0.4-0.4-0.4c-0.6-0.1-0.8-0.1-1.5-0.1
			c-3.8,0-4.8,1.7-4.8,5.3c0,3.5,1,5.3,4.8,5.3c1.4,0,3-0.3,3.5-0.6c0.1-0.1,0.2-0.1,0.2-0.3c0-0.1,0-0.1,0-0.1L107.7,16.5z"/>
	</g>
	<g>
		<path class="st1" d="M9.6,10c1.9,1.9,0.1,6.7-1.8,8.6s-1.6-3.1-3.5-5S-2,14.8,1,11.8C2.9,9.9,7.7,8.1,9.6,10"/>
		<path class="st0" d="M16,9.7c-1.9,1.9-6.7,0.1-8.6-1.8c-1.9-1.9,3-1.7,4.9-3.5S11.1-2,14.1,1C16,3,17.8,7.8,16,9.7"/>
		<path class="st1" d="M16.3,16c-1.9-1.9-0.1-6.7,1.8-8.6s1.6,3.1,3.5,5s6.3-1.2,3.3,1.8C23,16.2,18.2,17.9,16.3,16"/>
		<path class="st0" d="M10,16.4c1.9-1.9,6.7-0.1,8.6,1.8c1.9,1.9-3.1,1.6-5,3.5s1.2,6.3-1.8,3.3C9.9,23.1,8.1,18.3,10,16.4"/>
	</g>
</g>
</svg>
