<svg height="611" width="2500" xmlns="http://www.w3.org/2000/svg" viewBox="-14.157460562515809 -23.19 2414.277460562516 632.9800000000001"><path d="M456.98 77.8C402.51-.1 294.92-23.19 217.14 26.34l-136.6 87c-9.2 5.78-17.77 12.49-25.57 20.03a156.14 156.14 0 0 0-20.88 24.87 156.54 156.54 0 0 0-15.31 28.63c-4.09 10.05-7.13 20.5-9.06 31.18a165.75 165.75 0 0 0-2.62 27.13c-.12 9.11.51 18.2 1.89 27.2s3.5 17.87 6.35 26.52c2.84 8.65 6.39 17.04 10.62 25.11-2.92 4.41-5.6 8.97-8.05 13.66-2.46 4.69-4.67 9.5-6.63 14.41-1.97 4.91-3.68 9.92-5.14 15.01-1.46 5.08-2.66 10.24-3.6 15.45-1.94 10.91-2.79 22-2.54 33.08.26 11.09 1.62 22.12 4.06 32.93 2.45 10.82 5.96 21.36 10.5 31.48s10.08 19.76 16.53 28.78c54.47 77.9 162.06 100.98 239.84 51.46l136.61-86.64c9.18-5.79 17.74-12.5 25.53-20.05 7.8-7.55 14.8-15.88 20.88-24.87 6.07-8.99 11.2-18.58 15.31-28.63 4.1-10.04 7.14-20.48 9.09-31.16a165.007 165.007 0 0 0 .7-54.31c-1.39-8.99-3.51-17.85-6.36-26.5-2.84-8.64-6.4-17.04-10.63-25.09 2.91-4.42 5.6-8.98 8.05-13.67 2.46-4.69 4.67-9.5 6.64-14.41s3.69-9.92 5.16-15.01c1.46-5.08 2.67-10.24 3.62-15.44a167.5 167.5 0 0 0 2.53-33.08c-.26-11.09-1.62-22.12-4.07-32.93A166.925 166.925 0 0 0 473.5 107a166.95 166.95 0 0 0-16.52-28.78" fill="#ff3e00"/><path d="M203.78 516.35a108.576 108.576 0 0 1-65.03-3.3 108.328 108.328 0 0 1-28.79-16 108.687 108.687 0 0 1-22.67-23.89c-3.88-5.43-7.2-11.22-9.93-17.3-2.73-6.09-4.84-12.43-6.31-18.93-1.46-6.5-2.28-13.13-2.43-19.8-.15-6.66.37-13.32 1.54-19.88.2-1.07.41-2.14.64-3.2s.49-2.12.76-3.17.56-2.1.87-3.14.64-2.08.98-3.11l2.57-7.85 7.02 5.23c4.02 2.94 8.17 5.7 12.43 8.29 4.25 2.59 8.62 4.99 13.08 7.21s9.01 4.25 13.65 6.08c4.63 1.84 9.34 3.48 14.11 4.91l5.23 1.52-.47 5.24c-.12 1.77-.09 3.56.09 5.33s.52 3.53 1.01 5.24c.48 1.72 1.11 3.39 1.89 4.99.77 1.61 1.68 3.14 2.72 4.59 1.9 2.73 4.21 5.15 6.84 7.19 2.63 2.03 5.55 3.65 8.67 4.81 3.12 1.15 6.4 1.82 9.72 1.99s6.65-.17 9.87-1.01c.73-.19 1.47-.42 2.19-.67.72-.26 1.43-.54 2.13-.84.7-.31 1.39-.64 2.07-1s1.34-.74 1.99-1.15l136.39-87.01a28.283 28.283 0 0 0 8.43-8.17c1.1-1.64 2.03-3.38 2.77-5.21s1.29-3.73 1.63-5.67a30.16 30.16 0 0 0-2.22-17.67c-.83-1.84-1.84-3.58-3.01-5.21-1.9-2.73-4.21-5.15-6.84-7.19a32.677 32.677 0 0 0-18.39-6.8c-3.32-.17-6.65.17-9.87 1-.74.2-1.47.42-2.19.68-.73.25-1.44.53-2.14.84-.7.3-1.39.64-2.07.99-.67.36-1.33.75-1.98 1.16l-52.38 33.24a99.924 99.924 0 0 1-13.39 7.13c-2.32 1.01-4.67 1.94-7.06 2.78s-4.81 1.58-7.26 2.24c-10.67 2.75-21.7 3.87-32.71 3.3-11.01-.56-21.86-2.8-32.2-6.63A108.76 108.76 0 0 1 117 332.56a108.314 108.314 0 0 1-22.64-23.84 100.54 100.54 0 0 1-16.17-36.24c-1.46-6.5-2.26-13.13-2.41-19.79-.14-6.66.38-13.32 1.56-19.88a94.101 94.101 0 0 1 14.63-36.06 94.275 94.275 0 0 1 12.56-14.99c4.7-4.55 9.86-8.6 15.39-12.09l136.82-87c2.12-1.36 4.3-2.63 6.52-3.81 2.22-1.19 4.49-2.29 6.79-3.31 2.31-1.02 4.65-1.95 7.02-2.78 2.38-.84 4.79-1.59 7.22-2.25 10.68-2.77 21.73-3.9 32.76-3.34s21.9 2.79 32.25 6.63 20.06 9.24 28.78 16.01c8.72 6.76 16.36 14.82 22.65 23.89a100.327 100.327 0 0 1 16.26 36.22c1.47 6.5 2.29 13.14 2.44 19.8a99.7 99.7 0 0 1-1.52 19.89c-.21 1.08-.43 2.15-.67 3.22-.23 1.07-.49 2.13-.76 3.19s-.56 2.12-.86 3.17c-.31 1.05-.63 2.1-.96 3.14l-2.62 7.85-6.97-5.23a175.47 175.47 0 0 0-12.45-8.35c-4.27-2.61-8.65-5.03-13.12-7.27a178.08 178.08 0 0 0-13.69-6.13c-4.65-1.85-9.38-3.5-14.16-4.95l-5.24-1.52.47-5.23c.15-1.79.14-3.58-.02-5.37a29.71 29.71 0 0 0-.96-5.28c-.47-1.73-1.09-3.41-1.86-5.03s-1.67-3.17-2.71-4.64a32.9 32.9 0 0 0-6.84-7.05 32.764 32.764 0 0 0-8.64-4.69 32.31 32.31 0 0 0-9.63-1.91c-3.3-.15-6.59.2-9.78 1.04-.74.19-1.47.42-2.19.67s-1.44.53-2.14.84-1.39.64-2.06 1c-.68.36-1.34.74-1.99 1.15l-136.65 86.85a28.726 28.726 0 0 0-8.41 8.16 29.09 29.09 0 0 0-2.78 5.19c-.74 1.83-1.29 3.72-1.64 5.66-.35 1.98-.49 3.99-.44 6.01.06 2.01.31 4.01.76 5.98a31.14 31.14 0 0 0 1.91 5.71c.83 1.84 1.83 3.59 3 5.23 1.89 2.7 4.18 5.1 6.79 7.12s5.51 3.64 8.61 4.79c3.09 1.15 6.34 1.83 9.63 2.01 3.3.18 6.6-.13 9.81-.94.73-.2 1.46-.43 2.19-.68.72-.26 1.43-.54 2.13-.85.7-.3 1.39-.63 2.07-.99.67-.36 1.34-.74 1.99-1.14l52.37-33.2c2.14-1.36 4.33-2.65 6.57-3.85 2.23-1.2 4.51-2.31 6.84-3.33 2.32-1.02 4.68-1.95 7.08-2.79 2.39-.83 4.82-1.58 7.27-2.22 10.69-2.78 21.73-3.92 32.76-3.37a108.8 108.8 0 0 1 32.25 6.62 108.27 108.27 0 0 1 28.78 16c8.73 6.76 16.36 14.82 22.65 23.88 3.88 5.43 7.21 11.22 9.94 17.3 2.73 6.09 4.85 12.42 6.32 18.93 1.47 6.5 2.29 13.13 2.44 19.79.16 6.67-.35 13.33-1.52 19.89a93.835 93.835 0 0 1-5.43 18.8 94.341 94.341 0 0 1-9.2 17.26c-3.65 5.42-7.86 10.45-12.56 15s-9.86 8.6-15.39 12.08l-136.66 87.01c-2.14 1.36-4.33 2.64-6.57 3.83s-4.52 2.3-6.84 3.32c-2.33 1.02-4.69 1.95-7.08 2.8-2.39.84-4.82 1.59-7.27 2.25" fill="#fff"/><path d="M782.57 454.83c-6.32.16-12.64-.15-18.91-.94-6.27-.78-12.48-2.04-18.56-3.75-6.08-1.72-12.03-3.89-17.78-6.49a126.17 126.17 0 0 1-16.62-9.08c-4.94-3.26-9.59-6.93-13.9-10.98s-8.27-8.46-11.84-13.18c-3.56-4.73-6.71-9.74-9.42-15s-4.96-10.74-6.74-16.38l43.63-16.07c1.51 3.47 3.25 6.83 5.23 10.06s4.18 6.32 6.59 9.23c2.42 2.92 5.03 5.67 7.83 8.22a80.71 80.71 0 0 0 8.9 7.04c3.17 2.13 6.51 4.01 9.97 5.63s7.04 2.97 10.71 4.05 7.41 1.88 11.2 2.38c3.79.51 7.61.73 11.43.66 3.67.19 7.34.07 10.98-.37s7.24-1.2 10.75-2.26 6.92-2.42 10.2-4.07a62.8 62.8 0 0 0 9.35-5.76c2.57-2.16 4.89-4.62 6.9-7.32a43.6 43.6 0 0 0 7.91-18.34c.58-3.32.78-6.69.59-10.04.01-1.56-.06-3.13-.24-4.68-.17-1.55-.43-3.09-.79-4.61s-.81-3.02-1.34-4.48c-.54-1.47-1.17-2.9-1.88-4.29a52.23 52.23 0 0 0-4.26-7.18c-.8-1.14-1.65-2.25-2.54-3.32-.88-1.08-1.81-2.11-2.78-3.12-1.23-1.11-2.5-2.18-3.81-3.2s-2.66-1.99-4.04-2.9a66.22 66.22 0 0 0-4.26-2.59c-1.45-.8-2.93-1.56-4.44-2.25-7.44-3.71-13.57-6.54-18.49-8.48-4.93-1.94-12.15-4.55-21.63-7.8-11.95-4.19-20.96-7.43-26.82-9.84-2.02-.85-4.01-1.74-6-2.65-1.98-.92-3.95-1.87-5.9-2.85-1.96-.99-3.89-2-5.81-3.05-1.92-1.04-3.82-2.12-5.71-3.23a86.064 86.064 0 0 1-5.95-3.46 89.08 89.08 0 0 1-5.66-3.93 85.74 85.74 0 0 1-5.32-4.37 86.08 86.08 0 0 1-4.96-4.78c-1.37-1.63-2.67-3.3-3.91-5.03-1.23-1.73-2.4-3.5-3.5-5.32-1.09-1.82-2.11-3.68-3.06-5.58s-1.83-3.83-2.62-5.8a77.26 77.26 0 0 1 5.43-69.55 77.112 77.112 0 0 1 15.52-18.35c17.88-15.74 42.13-23.61 72.75-23.61 25.63 0 46.69 5.64 63.17 16.91 3.97 2.64 7.71 5.62 11.16 8.9 3.46 3.29 6.62 6.87 9.45 10.71 2.83 3.83 5.32 7.91 7.44 12.18s3.86 8.71 5.21 13.29l-42.85 14.29c-1.08-2.4-2.35-4.72-3.8-6.92s-3.07-4.29-4.84-6.24a49.994 49.994 0 0 0-12.31-9.82c-2.75-1.52-5.61-2.85-8.55-3.98s-5.95-2.07-9.01-2.79-6.17-1.24-9.31-1.55c-3.13-.3-6.28-.39-9.43-.27-3.08-.18-6.17-.1-9.25.23-3.07.33-6.11.91-9.08 1.74-2.98.84-5.88 1.91-8.68 3.22s-5.48 2.85-8.03 4.6c-2.08 1.62-3.97 3.49-5.61 5.56s-3.03 4.33-4.13 6.73-1.9 4.93-2.4 7.53c-.49 2.59-.67 5.24-.53 7.87a29.015 29.015 0 0 0 2.61 11.75c.85 1.84 1.88 3.59 3.08 5.21a28.9 28.9 0 0 0 4.1 4.46c1.48 1.45 3.03 2.83 4.64 4.14s3.27 2.55 5 3.71a68.285 68.285 0 0 0 10.9 5.97c7.12 2.98 18.01 6.96 32.57 12.04 8.91 3.3 15.72 5.7 19.86 7.38 4.13 1.67 10.47 4.34 18.96 8.22 1.67.74 3.32 1.51 4.96 2.32s3.26 1.65 4.86 2.52c1.6.88 3.19 1.78 4.76 2.72 1.56.94 3.11 1.91 4.64 2.91 1.37.98 2.72 1.99 4.06 3.01a170.589 170.589 0 0 1 7.86 6.37c1.28 1.09 2.55 2.21 3.79 3.34a66.943 66.943 0 0 1 10.71 11.82c1.03 1.45 2 2.94 2.91 4.46.87 1.59 1.69 3.2 2.46 4.84a87.701 87.701 0 0 1 4.01 10.07 93.69 93.69 0 0 1 1.55 5.19c.57 2.05 1.07 4.12 1.49 6.2.43 2.08.78 4.17 1.06 6.28.28 2.1.49 4.22.62 6.34.14 2.12.19 4.24.18 6.37 0 29.17-9.97 52-29.91 68.47s-45.52 24.73-76.73 24.76zm286.09-5.23L961.54 137.22h49.97l70.97 217.67c.98 2.93 1.92 5.87 2.82 8.83.9 2.95 1.77 5.92 2.59 8.89a347.411 347.411 0 0 1 4.44 17.99c.65-3.02 1.34-6.03 2.08-9.03.73-3 1.5-5.98 2.32-8.96s1.68-5.94 2.58-8.9c.89-2.95 1.84-5.89 2.82-8.82l70.08-217.67h49.55l-106.7 312.27zm247.7 0V137.22h193.8v43.71h-147.35v85.65h95.07v43.71h-95.07v95.28h157.14v43.71zm321.81 0V137.22h46.46v267.67h152.63v44.6zm374.03-267.68v267.57h-46.4V181.82h-88.37v-44.6h223.03v44.6zm184.38 267.68V137.22h193.8v43.71h-147.4v85.65h95.07v43.71h-95.07v95.28h157.14v43.71z" fill="#4a4a55"/></svg>